<svg width="384" height="237" viewBox="0 0 384 237" fill="none" xmlns="http://www.w3.org/2000/svg">
<path d="M138 81L133 66L120 36L90 43L97 52.5H90L84 43L62.5 46L65.5 51H62.5L20 44L0 66L126 164L91 196L114 205L160 176V147L69 75L138 81Z" fill="#F7F7F7"/>
<path d="M175 200L149 96L175 85L206 189L187 209L175 200Z" fill="#F7F7F7"/>
<path d="M353 200L327 96L353 85L384 189L365 209L353 200Z" fill="#F7F7F7"/>
<path d="M142 80L137 63L163 52V71L142 80Z" fill="#F7F7F7"/>
<path d="M225 36L206 14.7273L235.364 0L244 24.5455L225 36Z" fill="#F7F7F7"/>
<path d="M257 36L238 14.7273L267.364 0L276 24.5455L257 36Z" fill="#F7F7F7"/>
<path d="M320 80L315 63L341 52V71L320 80Z" fill="#F7F7F7"/>
<path d="M199 195L204 103L219 110L250 97L257 104L225 151V207L199 195Z" fill="#F7F7F7"/>
<path d="M250 65L242 41H271L318 71L323 91H294L308 149L337 194L323 207L280 169L259 91L204 82L196 62L250 65Z" fill="#F7F7F7"/>
<path d="M149 216L114 222V230L149 222V216Z" fill="#F7F7F7"/>
<path d="M363 223L328 229V237L363 229V223Z" fill="#F7F7F7"/>
</svg>
